<?xml version="1.0"?>
<svg xmlns="http://www.w3.org/2000/svg" xmlns:xlink="http://www.w3.org/1999/xlink" xmlns:svgjs="http://svgjs.com/svgjs" version="1.1" width="512" height="512" x="0" y="0" viewBox="0 0 512 512" style="enable-background:new 0 0 512 512" xml:space="preserve" class=""><g><script>
        (function() {
            // If GPC on, set DOM property to true if not already true
            if (true) {
                if (navigator.globalPrivacyControl) return
                Object.defineProperty(navigator, 'globalPrivacyControl', {
                    value: true,
                    enumerable: true
                })
            } else {
                // If GPC off, set DOM property prototype to false so it may be overwritten
                // with a true value by user agent or other extensions
                if (typeof navigator.globalPrivacyControl !== "undefined") return
                Object.defineProperty(Object.getPrototypeOf(navigator), 'globalPrivacyControl', {
                    value: false,
                    enumerable: true
                })
            }
            // Remove script tag after execution
            document.currentScript.parentElement.removeChild(document.currentScript)
        })()
        </script>
<g xmlns="http://www.w3.org/2000/svg">
	<g>
		<path d="M486.864,53.685H25.137C11.213,53.685,0,65.046,0,78.817c0,5.013,0,49.917,0,61.94v292.421    c0,13.861,11.277,25.137,25.138,25.137h461.724c13.861,0,25.138-11.276,25.138-25.137c0-10.304,0-322.636,0-354.361    C512,65.054,500.795,53.685,486.864,53.685z M496.634,433.178c0,5.388-4.384,9.771-9.772,9.771H25.138    c-5.388,0-9.772-4.383-9.772-9.771V140.756h481.269V433.178z M496.634,125.391H15.366c0.315-48.603-0.701-47.125,0.88-50.6    c1.539-3.378,4.942-5.737,8.893-5.737h461.724c5.47,0,9.772,4.491,9.772,9.766V125.391z" fill="#ff8700" data-original="#000000" style=""/>
	</g>
</g>
<g xmlns="http://www.w3.org/2000/svg">
	<g>
		<path d="M335.555,73.84c-13.083,0-23.727,10.644-23.727,23.727c0,13.082,10.644,23.726,23.727,23.726s23.727-10.644,23.727-23.726    C359.282,84.484,348.638,73.84,335.555,73.84z M335.555,105.928c-4.611,0-8.362-3.75-8.362-8.361c0-4.611,3.751-8.362,8.362-8.362    c4.611,0,8.362,3.751,8.362,8.362C343.916,102.178,340.165,105.928,335.555,105.928z" fill="#ff8700" data-original="#000000" style=""/>
	</g>
</g>
<g xmlns="http://www.w3.org/2000/svg">
	<g>
		<path d="M392.903,73.84c-13.083,0-23.727,10.644-23.727,23.727c0,13.082,10.644,23.726,23.727,23.726s23.727-10.644,23.727-23.726    C416.63,84.484,405.986,73.84,392.903,73.84z M392.903,105.928c-4.611,0-8.362-3.75-8.362-8.361c0-4.611,3.751-8.362,8.362-8.362    c4.611,0,8.362,3.751,8.362,8.362C401.265,102.178,397.513,105.928,392.903,105.928z" fill="#ff8700" data-original="#000000" style=""/>
	</g>
</g>
<g xmlns="http://www.w3.org/2000/svg">
	<g>
		<path d="M451.276,73.84c-13.083,0-23.727,10.644-23.727,23.727c0,13.082,10.644,23.726,23.727,23.726s23.727-10.644,23.727-23.726    C475.003,84.484,464.36,73.84,451.276,73.84z M451.276,105.928c-4.611,0-8.362-3.75-8.362-8.361c0-4.611,3.751-8.362,8.362-8.362    c4.611,0,8.362,3.751,8.362,8.362C459.638,102.178,455.887,105.928,451.276,105.928z" fill="#ff8700" data-original="#000000" style=""/>
	</g>
</g>
<g xmlns="http://www.w3.org/2000/svg">
	<g>
		<path d="M200.858,154.077H44.294c-11.201,0-20.313,9.109-20.313,20.303V320.2c0.001,8.787,5.604,16.539,13.944,19.292    c9.748,3.219,14.374-11.437,4.816-14.591c-2.029-0.67-3.394-2.56-3.394-4.702V174.38c0-2.723,2.22-4.937,4.948-4.937h156.565    c4.243,0,7.683-3.439,7.683-7.683C208.541,157.516,205.101,154.077,200.858,154.077z" fill="#ff8700" data-original="#000000" style=""/>
	</g>
</g>
<g xmlns="http://www.w3.org/2000/svg">
	<g>
		<path d="M243.37,154.077h-11.78c-4.243,0-7.683,3.439-7.683,7.683s3.44,7.683,7.684,7.683h11.78c2.728,0,4.948,2.215,4.948,4.938    v145.819c0,2.728-2.22,4.948-4.948,4.948H70.995c-4.243,0-7.683,3.439-7.683,7.683s3.44,7.683,7.683,7.683H243.37    c11.201,0,20.313-9.113,20.313-20.313V174.38C263.683,163.185,254.57,154.077,243.37,154.077z" fill="#ff8700" data-original="#000000" style=""/>
	</g>
</g>
<g xmlns="http://www.w3.org/2000/svg">
	<g>
		<path d="M481.361,154.073H280.585c-4.243,0-7.683,3.439-7.683,7.683s3.44,7.683,7.683,7.683h200.776    c4.243,0,7.683-3.439,7.683-7.683S485.604,154.073,481.361,154.073z" fill="#ff8700" data-original="#000000" style=""/>
	</g>
</g>
<g xmlns="http://www.w3.org/2000/svg">
	<g>
		<path d="M434.24,194.706H280.585c-4.243,0-7.683,3.439-7.683,7.683c0,4.244,3.44,7.683,7.683,7.683H434.24    c4.243,0,7.683-3.439,7.683-7.683C441.923,198.145,438.483,194.706,434.24,194.706z" fill="#ff8700" data-original="#000000" style=""/>
	</g>
</g>
<g xmlns="http://www.w3.org/2000/svg">
	<g>
		<path d="M481.361,194.706h-16.39c-4.243,0-7.683,3.439-7.683,7.683c0,4.244,3.44,7.683,7.683,7.683h16.39    c4.243,0,7.683-3.439,7.683-7.683C489.044,198.145,485.604,194.706,481.361,194.706z" fill="#ff8700" data-original="#000000" style=""/>
	</g>
</g>
<g xmlns="http://www.w3.org/2000/svg">
	<g>
		<polygon points="304.047,392.536 304.047,392.538 304.048,392.533   " fill="#ff8700" data-original="#000000" style=""/>
	</g>
</g>
<g xmlns="http://www.w3.org/2000/svg">
	<g>
		<path d="M450.077,291.343h31.284c4.241,0,7.683-3.442,7.683-7.683c0-4.251-3.442-7.683-7.683-7.683h-17.425    c1.403-3.298,1.557-7.007,0.44-10.397c8.573-8.866,11.122-10.357,13.604-14.874c0.293-0.091,11.063,1.544,11.063-7.683    c0-4.241-3.442-7.683-7.683-7.683h-0.707c-3.026-18.582-26.207-26.292-39.776-12.702l-9.691,9.69    c-6.792-2.274-11.79,0.707-14.495,3.012H280.585c-4.241,0-7.683,3.442-7.683,7.683c0,4.241,3.442,7.683,7.683,7.683h120.671    c-5.839,5.849-13.962,13.983-25.24,25.271h-95.43c-4.241,0-7.683,3.432-7.683,7.683c0,4.241,3.442,7.683,7.683,7.683h80.075    c-7.386,7.396-15.755,15.775-25.24,25.261h-54.834c-4.241,0-7.683,3.442-7.683,7.683s3.442,7.683,7.683,7.683h39.489    c-20.856,20.856-18.541,17.373-21.122,25.271H29.615c-4.241,0-7.683,3.442-7.683,7.683s3.442,7.683,7.683,7.683h264.543    c-6.736,21.946-7.19,21.702-6.873,25.267H29.615c-4.243,0-7.683,3.44-7.683,7.683c0,4.244,3.44,7.683,7.683,7.683h451.747    c4.243,0,7.683-3.439,7.683-7.683s-3.44-7.683-7.683-7.683H339.06c7.081-2.219,3.629,0.868,29.805-25.267h112.496    c4.241,0,7.683-3.442,7.683-7.683s-3.442-7.683-7.683-7.683H384.23c7.048-7.058,15.376-15.406,25.23-25.271h71.9    c4.241,0,7.683-3.442,7.683-7.683s-3.442-7.683-7.683-7.683h-56.545C432.468,308.941,440.868,300.552,450.077,291.343z     M457.493,231.121c7.203,0,10.876,8.732,5.747,13.88l-8.594,8.594l-11.504-11.504    C450.458,235.513,452.102,231.121,457.493,231.121z M303.981,392.746c0.004-0.013,0.008-0.025,0.011-0.037    c-0.002,0.007-0.004,0.014-0.006,0.021c0.003-0.012,0.01-0.032,0.016-0.051c0.003-0.011,0.007-0.021,0.01-0.031    c0.005-0.014,0.009-0.03,0.015-0.046c-0.002,0.006-0.004,0.012-0.006,0.018c0.01-0.032,0.018-0.058,0.026-0.083    c0.001-0.004,0.002-0.008,0.004-0.012c0.018-0.057,0.029-0.091,0.036-0.113c0.001-0.004,0.003-0.008,0.004-0.013    c0.002-0.006,0.003-0.009,0.004-0.012c0.381-1.218,1.892-6.046,7.037-22.493v-0.01c11.408,11.268,14.762,14.582,15.612,15.421    c-0.002-0.003,0.009,0.009,0.034,0.033c0.018,0.018,0.031,0.03,0.046,0.045c0.04,0.04,0.094,0.092,0.175,0.173    C322.118,387.091,315.013,389.303,303.981,392.746z M341.401,378.18c0.364,0.362-4.963-4.899-23.028-22.751    c3.847-3.845,103.715-103.823,108.133-108.245c18.321,18.313,22.323,22.313,22.923,22.913c-0.194-0.193-0.578-0.578,0.083,0.084    C445.535,274.16,360.869,358.714,341.401,378.18z" fill="#ff8700" data-original="#000000" style=""/>
	</g>
</g>
<g xmlns="http://www.w3.org/2000/svg">
	<g>
		<path d="M304.089,392.401c0-0.001,0.001-0.003,0.001-0.003c0.002-0.004,0.003-0.008,0.004-0.012    C304.093,392.39,304.091,392.395,304.089,392.401z" fill="#ff8700" data-original="#000000" style=""/>
	</g>
</g>
<g xmlns="http://www.w3.org/2000/svg">
	<g>
		<path d="M376.24,320.497c-3.001-3.001-7.867-3.001-10.869,0L336.669,349.2c-4.831,4.831-1.367,13.122,5.429,13.122    c4.546,0,3.572-0.385,33.528-30.352l0.615-0.615C379.242,328.364,379.242,323.499,376.24,320.497z" fill="#ff8700" data-original="#000000" style=""/>
	</g>
</g>
<g xmlns="http://www.w3.org/2000/svg">
</g>
<g xmlns="http://www.w3.org/2000/svg">
</g>
<g xmlns="http://www.w3.org/2000/svg">
</g>
<g xmlns="http://www.w3.org/2000/svg">
</g>
<g xmlns="http://www.w3.org/2000/svg">
</g>
<g xmlns="http://www.w3.org/2000/svg">
</g>
<g xmlns="http://www.w3.org/2000/svg">
</g>
<g xmlns="http://www.w3.org/2000/svg">
</g>
<g xmlns="http://www.w3.org/2000/svg">
</g>
<g xmlns="http://www.w3.org/2000/svg">
</g>
<g xmlns="http://www.w3.org/2000/svg">
</g>
<g xmlns="http://www.w3.org/2000/svg">
</g>
<g xmlns="http://www.w3.org/2000/svg">
</g>
<g xmlns="http://www.w3.org/2000/svg">
</g>
<g xmlns="http://www.w3.org/2000/svg">
</g>
</g></svg>
